# xmcd
#
# Track frame offsets:
#        150
#        14200
#        27377
#        41677
#        55995
#        73210
#        92017
#        110677
#        129570
#        155637
#        181982
#        194657
#        207435
#        224525
#        241285
#        257995
#        276832
#        288917
#        302195
#
# Disc length: 4103 seconds
#
# Revision: 1
# Processed by: cddbd v1.5.1PL2 Copyright (c) Steve Scherf et al.
# Submitted via: ExactAudioCopy v0.95a5
#
DISCID=36100513
DTITLE=John Lennon - Imagine All The Outtakes [CD2)
DYEAR=1994
DGENRE=
TTITLE0=Imagine (tk_1)
TTITLE1=Imagine (tk_2)
TTITLE2=Imagine (tk_3)
TTITLE3=Imagine (alt_vocal)
TTITLE4=Crippled Inside (tk_2)
TTITLE5=Jealous Guy (tk_1)
TTITLE6=Jealous Guy (tk_7)
TTITLE7=Jealous Guy (vocal tk_20)
TTITLE8=I Don't Want To Be A Soldier, I Don't Want To Die (tk_1 w sax)
TTITLE9=I Don't Want To Be A Soldier, I Don't Want To Die (alt_mix)
TTITLE10=Oh My Love (alt_1a)
TTITLE11=Oh My Love (alt_1b)
TTITLE12=How (tk_12)
TTITLE13=How (alt_vocal b)
TTITLE14=How (original tk_2)
TTITLE15=Oh Yoko (tk_7)
TTITLE16=I'm The Greatest (p demo)
TTITLE17=Imagine (p rehearsal)
TTITLE18=San Francisco Bay Blues (12-string gt)
EXTD=
EXTT0=
EXTT1=
EXTT2=
EXTT3=
EXTT4=
EXTT5=
EXTT6=
EXTT7=
EXTT8=
EXTT9=
EXTT10=
EXTT11=
EXTT12=
EXTT13=
EXTT14=
EXTT15=
EXTT16=
EXTT17=
EXTT18=
PLAYORDER=
